<svg xmlns="http://www.w3.org/2000/svg" viewBox="0 0 1200 1200"><path d="M600.36.363c331.2 0 600 268.8 600 600s-268.8 600-600 600-600-268.8-600-600 268.8-600 600-600z" fill="#2b334b"/><path d="M890.677 453.109V347.944c0-29.784-24.344-54.128-54.128-54.128l-295.543-.026c-29.963 0-54.128 24.344-54.128 54.128v105.165c0 8.89 2.35 17.268 6.182 24.701H363.733c-14.535 0-28.15 5.62-38.316 15.812-10.167 10.167-15.812 23.807-15.812 38.316v105.165c0 14.177 5.824 28.15 15.812 38.316.358.358.92.715 1.277 1.098-.358.358-.92.715-1.277 1.098-10.167 10.167-15.812 23.807-15.812 38.316v105.165c0 14.177 5.824 28.15 15.812 38.316s23.807 15.812 38.316 15.812h472.823c14.535 0 28.15-5.62 38.316-15.812 10.167-10.167 15.812-23.986 15.812-38.316V715.907c0-14.535-5.62-28.15-15.812-38.316-10.167-10.167-23.807-15.812-38.316-15.812H687.427c3.806-7.638 6.182-15.991 6.182-24.701V531.913c0-8.71-2.35-17.064-6.182-24.701h148.945c29.963 0 54.128-24.344 54.128-54.128zm-374.374 0V347.944c0-13.615 11.086-24.522 24.701-24.522h295.543c13.615 0 24.701 11.086 24.701 24.522v105.165c0 13.615-11.086 24.701-24.701 24.701H541.003c-13.615 0-24.701-11.086-24.701-24.701zm337.695 245.223c4.726 4.726 7.255 10.908 7.255 17.447v105.165c0 6.539-2.733 12.9-7.255 17.447-4.547 4.547-10.908 7.255-17.447 7.255H363.525c-6.539 0-12.9-2.554-17.447-7.255-4.547-4.726-7.255-10.908-7.255-17.447V715.779c0-6.539 2.554-12.721 7.255-17.447 4.547-4.547 10.908-7.255 17.447-7.255h472.823c6.539 0 12.9 2.554 17.447 7.255zM656.897 514.31c4.726 4.726 7.255 10.908 7.255 17.447v105.165c0 6.539-2.733 12.9-7.255 17.447-4.547 4.547-10.908 7.255-17.447 7.255H363.525c-6.539 0-12.9-2.554-17.447-7.255-4.547-4.726-7.255-10.908-7.255-17.447V531.757c0-6.539 2.554-12.721 7.255-17.447 4.726-4.726 10.908-7.255 17.447-7.255H639.45c6.539 0 12.721 2.554 17.447 7.255z" fill="#ff8a86"/></svg>